<?xml version="1.0" encoding="utf-8"?>
<!-- Generator: Adobe Illustrator 23.1.0, SVG Export Plug-In . SVG Version: 6.00 Build 0)  -->
<svg version="1.1" id="Capa_1" xmlns="http://www.w3.org/2000/svg" xmlns:xlink="http://www.w3.org/1999/xlink" x="0px" y="0px"
	 viewBox="0 0 66 51" style="enable-background:new 0 0 66 51;" xml:space="preserve">
<style type="text/css">
	.st0{fill:#252525;}
	.st1{fill:#FFFFFF;}
</style>
<g transform="translate(1 1)">
	<path class="st0" d="M60.2,49.5H8.5C6,49.5,4,47.5,4,45V9c0-2.5,2-4.5,4.5-4.5h51.7c2.5,0,4.5,2,4.5,4.5v36
		C64.7,47.4,62.7,49.5,60.2,49.5z"/>
	<rect x="36.7" y="27.5" class="st0" width="18" height="10.6"/>
	<path class="st1" d="M57.2-0.2H4.1c-2.5,0-4.6,2.1-4.6,4.6V7v6.5v27.8c0,2.5,2.1,4.6,4.6,4.6h53.1c2.5,0,4.6-2.1,4.6-4.6V13.5V7
		V4.4C61.8,1.8,59.7-0.2,57.2-0.2z M4.1,2.1h53.1c1.3,0,2.3,1,2.3,2.3V6H1.8V4.4C1.8,3.1,2.8,2.1,4.1,2.1z M57.2,43.6H4.1
		c-1.3,0-2.3-1-2.3-2.3V14.6h57.7v26.8C59.5,42.6,58.4,43.6,57.2,43.6z"/>
	<path class="st1" d="M54.8,39H36.4c-0.7,0-1.2-0.5-1.2-1.2V27.5c0-0.7,0.5-1.2,1.2-1.2h18.5c0.7,0,1.2,0.5,1.2,1.2v10.4
		C56,38.5,55.5,39,54.8,39z M37.5,36.7h16.2v-8.1H37.5V36.7z"/>
	<path class="st1" d="M15.5,23H6.2C5.5,23,5,22.5,5,21.8s0.5-1.2,1.2-1.2h9.2c0.7,0,1.2,0.5,1.2,1.2S16.1,23,15.5,23z"/>
	<path class="st1" d="M29.3,23h-9.2c-0.7,0-1.2-0.5-1.2-1.2s0.5-1.2,1.2-1.2h9.2c0.7,0,1.2,0.5,1.2,1.2S30,23,29.3,23z"/>
	<path class="st1" d="M21.2,27.6h-15c-0.7,0-1.2-0.5-1.2-1.2s0.5-1.2,1.2-1.2h15c0.7,0,1.2,0.5,1.2,1.2S21.9,27.6,21.2,27.6z"/>
</g>
</svg>
