<?xml version="1.0" encoding="utf-8"?>
<!-- Generator: Adobe Illustrator 23.1.0, SVG Export Plug-In . SVG Version: 6.00 Build 0)  -->
<svg version="1.1" id="Capa_1" xmlns="http://www.w3.org/2000/svg" xmlns:xlink="http://www.w3.org/1999/xlink" x="0px" y="0px"
	 viewBox="0 0 150 142" style="enable-background:new 0 0 150 142;" xml:space="preserve">
<g>
	<path d="M49.6,105.8c-9.8,0-17.7,7.9-17.7,17.7c0,9.8,7.9,17.7,17.7,17.7c9.8,0,17.7-7.9,17.7-17.7
		C67.3,113.8,59.4,105.8,49.6,105.8z M49.6,134.7c-6.2,0-11.2-5-11.2-11.2c0-6.2,5-11.2,11.2-11.2c6.2,0,11.2,5,11.2,11.2
		C60.8,129.7,55.8,134.7,49.6,134.7z"/>
	<path d="M3.4,7.5L11.9,9c5.4,1,9.6,5.2,10.6,10.5l11.5,65C35.3,92.3,42.1,98,50,98h68.4c7.2,0,13.5-4.7,15.6-11.6l15.3-50.7
		c0.3-1,0.1-2.1-0.5-2.9c-0.6-0.8-1.6-1.3-2.6-1.3h-115l-2.3-13.1C27.4,10.3,21.1,4,13,2.5L4.5,1.1C2.7,0.7,1,1.9,0.7,3.7
		c0,0.2-0.1,0.4,0,0.7C0.7,5.9,1.8,7.2,3.4,7.5z M141.8,38l-14.1,46.5c-1.2,4.1-5,7-9.3,6.9H50c-4.7,0-8.8-3.4-9.6-8.1l-8-45.4
		H141.8z"/>
	<path d="M118,105.8c-9.8,0-17.7,7.9-17.7,17.7c0,9.8,7.9,17.7,17.7,17.7c9.8,0,17.7-7.9,17.7-17.7
		C135.7,113.8,127.8,105.8,118,105.8z M118,134.7c-6.2,0-11.2-5-11.2-11.2c0-6.2,5-11.2,11.2-11.2c6.2,0,11.2,5,11.2,11.2
		C129.2,129.7,124.2,134.7,118,134.7z"/>
</g>
</svg>
