<?xml version="1.0" encoding="utf-8"?>
<!-- Generator: Adobe Illustrator 23.1.0, SVG Export Plug-In . SVG Version: 6.00 Build 0)  -->
<svg version="1.1" id="Capa_1" xmlns="http://www.w3.org/2000/svg" xmlns:xlink="http://www.w3.org/1999/xlink" x="0px" y="0px"
	 viewBox="0 0 82 51" style="enable-background:new 0 0 82 51;" xml:space="preserve">
<style type="text/css">
	.st0{fill:#252525;}
	.st1{fill:#FFFFFF;}
</style>
<g>
	<path class="st0" d="M78.3,5.6H32.1c-1.9,0-3.4,1.5-3.4,3.3v18.2v1.7v4.7c0,1.8,1.5,3.3,3.4,3.3h46.2c1.9,0,3.4-1.5,3.4-3.3V8.9
		C81.7,7.1,80.2,5.6,78.3,5.6z"/>
	<rect x="46.6" y="9" class="st0" width="8.7" height="16.5"/>
	<path class="st1" d="M74.1,0.5H28.4c-2.6,0-4.7,2.1-4.7,4.7v9.9h2.4V5.3c0-1.3,1-2.3,2.3-2.3h45.7c1.3,0,2.3,1,2.3,2.3v23.9
		c0,1.3-1,2.3-2.3,2.3H28.4c-1.3,0-2.3-1-2.3-2.3v-0.4c1.5-1,3-1.8,3-1.8s10.5-0.9,10.5-6.3c0-0.1,0-0.3,0-0.4c0,0-0.3-4-11.9-0.7
		L15,21.1c0,0-6.9,1.7-11.8,6.3H1.8c-0.8,0-1.4,0.6-1.4,1.4v15c0,0.7,0.5,1.3,1.2,1.4c5,0.5,23.5,2.6,26.3,3.8
		c0.5,0.2,0.9,0.4,1.4,0.4c1.6,0.3,4.5,0.4,6.2-1.8c0.7-0.9,9.4-8.2,13.5-13.6h25c2.6,0,4.7-2.1,4.7-4.7v-24
		C78.8,2.7,76.7,0.5,74.1,0.5z"/>
	<path class="st1" d="M51,6.5c-5.1,0-9.4,3.6-10.5,8.4c0.3,0.1,0.5,0.3,0.8,0.5c2.3,1.6,2.7,3.7,2.8,4.5c0,0.3,0,0.6,0,0.9
		c0,1-0.2,2.4-1,3.9c2,2.1,4.8,3.4,7.9,3.4c5.9,0,10.8-4.8,10.8-10.8S57,6.5,51,6.5L51,6.5z M52,10.8c0,0.6,0,0.7,0.6,0.8
		c0.5,0.1,1,0.2,1.4,0.4c0.3,0.1,0.4,0.3,0.3,0.6c-0.1,0.4-0.2,0.8-0.4,1.2c-0.1,0.4-0.2,0.4-0.6,0.3c-0.7-0.4-1.5-0.5-2.3-0.5
		c-0.2,0-0.4,0-0.6,0.1c-0.7,0.3-0.8,1.1-0.2,1.5c0.3,0.2,0.6,0.4,1,0.6c0.6,0.3,1.2,0.5,1.8,0.8c1.8,1,2.3,3.3,1,4.9
		c-0.5,0.6-1.1,1-1.8,1.1c-0.3,0.1-0.5,0.2-0.4,0.6c0,0.3,0,0.6,0,1c0,0.3-0.1,0.4-0.4,0.4c-0.3,0-0.7,0-1,0S50,24.4,50,24.1v-0.7
		c0-0.5,0-0.5-0.5-0.6c-0.6-0.1-1.2-0.2-1.8-0.5c-0.5-0.2-0.5-0.3-0.4-0.8c0.1-0.4,0.2-0.7,0.3-1.1s0.2-0.5,0.6-0.3
		c0.6,0.3,1.3,0.5,2,0.6c0.5,0.1,0.9,0,1.3-0.2c0.8-0.3,0.9-1.3,0.2-1.8c-0.2-0.2-0.5-0.3-0.8-0.4c-0.7-0.3-1.4-0.5-2.1-0.9
		c-1.1-0.6-1.7-1.5-1.7-2.8c0.1-1.5,0.9-2.4,2.3-2.9c0.6-0.2,0.6-0.2,0.6-0.8v-0.6c0-0.4,0.1-0.5,0.5-0.5h0.4C52,9.9,52,9.9,52,10.8
		L52,10.8z"/>
</g>
</svg>
