<?xml version="1.0" encoding="utf-8"?>
<!-- Generator: Adobe Illustrator 23.1.0, SVG Export Plug-In . SVG Version: 6.00 Build 0)  -->
<svg version="1.1" id="Capa_1" xmlns="http://www.w3.org/2000/svg" xmlns:xlink="http://www.w3.org/1999/xlink" x="0px" y="0px"
	 viewBox="0 0 15.9 17.1" style="enable-background:new 0 0 15.9 17.1;" xml:space="preserve">
<style type="text/css">
	.st0{fill:#161616;}
</style>
<g>
	<rect x="7.3" y="5.9" class="st0" width="1.3" height="7.9"/>
	
		<rect x="6.5" y="9.2" transform="matrix(3.663899e-02 -0.9993 0.9993 3.663899e-02 0.1942 19.8799)" class="st0" width="7.9" height="1.3"/>
	
		<rect x="4.9" y="5.9" transform="matrix(0.9993 -3.659737e-02 3.659737e-02 0.9993 -0.3564 0.2095)" class="st0" width="1.3" height="7.9"/>
	<path class="st0" d="M11.3,2.6V1.2c0-0.6-0.5-1.1-1.1-1.1H5.8c-0.6,0-1.1,0.5-1.1,1.1v1.4H0v1.3h1.4l1.1,12.5
		c0,0.3,0.3,0.6,0.7,0.6h9.5c0.3,0,0.6-0.3,0.7-0.6l1.1-12.5h1.4V2.6H11.3z M6,1.4h3.9v1.2H6V1.4z M12.1,15.7H3.8l-1-11.8h10.4
		L12.1,15.7z"/>
</g>
</svg>
